<mxfile host="app.diagrams.net" modified="2023-12-30T20:24:30.079Z" agent="Mozilla/5.0 (Macintosh; Intel Mac OS X 10_15_7) AppleWebKit/605.1.15 (KHTML, like Gecko) Version/17.1 Safari/605.1.15" etag="lG_NGJ_Fm7f5KnDJFXcz" version="22.1.16" type="github">
  <diagram name="Page-1" id="vyAP7Pw6xXUGSNg_5jmb">
    <mxGraphModel dx="855" dy="577" grid="1" gridSize="10" guides="1" tooltips="1" connect="1" arrows="1" fold="1" page="1" pageScale="1" pageWidth="850" pageHeight="1100" math="0" shadow="0">
      <root>
        <mxCell id="0" />
        <mxCell id="1" parent="0" />
        <mxCell id="Zx5_aKABX4eHuGwFj37n-1" value="Kedigiller" style="swimlane;fontStyle=1;align=center;verticalAlign=middle;childLayout=stackLayout;horizontal=1;startSize=29;horizontalStack=0;resizeParent=1;resizeParentMax=0;resizeLast=0;collapsible=0;marginBottom=0;html=1;whiteSpace=wrap;" vertex="1" parent="1">
          <mxGeometry x="320" y="480" width="140" height="110" as="geometry" />
        </mxCell>
        <mxCell id="Zx5_aKABX4eHuGwFj37n-2" value="+isDomestic : boolean" style="text;html=1;strokeColor=default;fillColor=none;align=left;verticalAlign=middle;spacingLeft=4;spacingRight=4;overflow=hidden;rotatable=0;points=[[0,0.5],[1,0.5]];portConstraint=eastwest;whiteSpace=wrap;" vertex="1" parent="Zx5_aKABX4eHuGwFj37n-1">
          <mxGeometry y="29" width="140" height="25" as="geometry" />
        </mxCell>
        <mxCell id="Zx5_aKABX4eHuGwFj37n-3" value="+getDosage()&lt;br style=&quot;border-color: var(--border-color);&quot;&gt;+getFeedSchedule()" style="text;html=1;strokeColor=none;fillColor=none;align=left;verticalAlign=middle;spacingLeft=4;spacingRight=4;overflow=hidden;rotatable=0;points=[[0,0.5],[1,0.5]];portConstraint=eastwest;whiteSpace=wrap;" vertex="1" parent="Zx5_aKABX4eHuGwFj37n-1">
          <mxGeometry y="54" width="140" height="56" as="geometry" />
        </mxCell>
        <mxCell id="Zx5_aKABX4eHuGwFj37n-26" style="edgeStyle=orthogonalEdgeStyle;rounded=0;orthogonalLoop=1;jettySize=auto;html=1;entryX=0;entryY=0.5;entryDx=0;entryDy=0;endArrow=blockThin;endFill=0;" edge="1" parent="1" source="Zx5_aKABX4eHuGwFj37n-4" target="Zx5_aKABX4eHuGwFj37n-12">
          <mxGeometry relative="1" as="geometry" />
        </mxCell>
        <mxCell id="Zx5_aKABX4eHuGwFj37n-4" value="Atlar" style="swimlane;fontStyle=1;align=center;verticalAlign=middle;childLayout=stackLayout;horizontal=1;startSize=29;horizontalStack=0;resizeParent=1;resizeParentMax=0;resizeLast=0;collapsible=0;marginBottom=0;html=1;whiteSpace=wrap;" vertex="1" parent="1">
          <mxGeometry x="100" y="480" width="140" height="110" as="geometry" />
        </mxCell>
        <mxCell id="Zx5_aKABX4eHuGwFj37n-5" value="+speedInMph : decimal" style="text;html=1;strokeColor=default;fillColor=none;align=left;verticalAlign=middle;spacingLeft=4;spacingRight=4;overflow=hidden;rotatable=0;points=[[0,0.5],[1,0.5]];portConstraint=eastwest;whiteSpace=wrap;" vertex="1" parent="Zx5_aKABX4eHuGwFj37n-4">
          <mxGeometry y="29" width="140" height="25" as="geometry" />
        </mxCell>
        <mxCell id="Zx5_aKABX4eHuGwFj37n-6" value="+getDosage()&lt;br style=&quot;border-color: var(--border-color);&quot;&gt;+getFeedSchedule()" style="text;html=1;strokeColor=none;fillColor=none;align=left;verticalAlign=middle;spacingLeft=4;spacingRight=4;overflow=hidden;rotatable=0;points=[[0,0.5],[1,0.5]];portConstraint=eastwest;whiteSpace=wrap;" vertex="1" parent="Zx5_aKABX4eHuGwFj37n-4">
          <mxGeometry y="54" width="140" height="56" as="geometry" />
        </mxCell>
        <mxCell id="Zx5_aKABX4eHuGwFj37n-10" value="Hayvan" style="swimlane;fontStyle=1;align=center;verticalAlign=middle;childLayout=stackLayout;horizontal=1;startSize=29;horizontalStack=0;resizeParent=1;resizeParentMax=0;resizeLast=0;collapsible=0;marginBottom=0;html=1;whiteSpace=wrap;" vertex="1" parent="1">
          <mxGeometry x="320" y="210" width="140" height="100" as="geometry" />
        </mxCell>
        <mxCell id="Zx5_aKABX4eHuGwFj37n-11" value="&lt;font style=&quot;font-size: 12px;&quot;&gt;+breed : string&lt;br&gt;+weight : double&lt;br&gt;+age : int&lt;br&gt;&lt;/font&gt;" style="text;html=1;strokeColor=none;fillColor=none;align=left;verticalAlign=middle;spacingLeft=4;spacingRight=4;overflow=hidden;rotatable=0;points=[[0,0.5],[1,0.5]];portConstraint=eastwest;whiteSpace=wrap;" vertex="1" parent="Zx5_aKABX4eHuGwFj37n-10">
          <mxGeometry y="29" width="140" height="71" as="geometry" />
        </mxCell>
        <mxCell id="Zx5_aKABX4eHuGwFj37n-30" style="edgeStyle=orthogonalEdgeStyle;rounded=0;orthogonalLoop=1;jettySize=auto;html=1;entryX=1;entryY=0.5;entryDx=0;entryDy=0;endArrow=blockThin;endFill=0;" edge="1" parent="1" source="Zx5_aKABX4eHuGwFj37n-16" target="Zx5_aKABX4eHuGwFj37n-12">
          <mxGeometry relative="1" as="geometry" />
        </mxCell>
        <mxCell id="Zx5_aKABX4eHuGwFj37n-16" value="Kemirgenler" style="swimlane;fontStyle=1;align=center;verticalAlign=middle;childLayout=stackLayout;horizontal=1;startSize=29;horizontalStack=0;resizeParent=1;resizeParentMax=0;resizeLast=0;collapsible=0;marginBottom=0;html=1;whiteSpace=wrap;" vertex="1" parent="1">
          <mxGeometry x="530" y="480" width="140" height="110" as="geometry" />
        </mxCell>
        <mxCell id="Zx5_aKABX4eHuGwFj37n-17" value="+isPoisonous : boolean" style="text;html=1;strokeColor=default;fillColor=none;align=left;verticalAlign=middle;spacingLeft=4;spacingRight=4;overflow=hidden;rotatable=0;points=[[0,0.5],[1,0.5]];portConstraint=eastwest;whiteSpace=wrap;" vertex="1" parent="Zx5_aKABX4eHuGwFj37n-16">
          <mxGeometry y="29" width="140" height="25" as="geometry" />
        </mxCell>
        <mxCell id="Zx5_aKABX4eHuGwFj37n-18" value="+getDosage()&lt;br style=&quot;border-color: var(--border-color);&quot;&gt;+getFeedSchedule()" style="text;html=1;strokeColor=none;fillColor=none;align=left;verticalAlign=middle;spacingLeft=4;spacingRight=4;overflow=hidden;rotatable=0;points=[[0,0.5],[1,0.5]];portConstraint=eastwest;whiteSpace=wrap;" vertex="1" parent="Zx5_aKABX4eHuGwFj37n-16">
          <mxGeometry y="54" width="140" height="56" as="geometry" />
        </mxCell>
        <mxCell id="Zx5_aKABX4eHuGwFj37n-12" value="+getDosage()&lt;br&gt;+getFeedSchedule()" style="text;html=1;strokeColor=default;fillColor=none;align=left;verticalAlign=middle;spacingLeft=4;spacingRight=4;overflow=hidden;rotatable=0;points=[[0,0.5],[1,0.5]];portConstraint=eastwest;whiteSpace=wrap;" vertex="1" parent="1">
          <mxGeometry x="320" y="310" width="140" height="70" as="geometry" />
        </mxCell>
        <mxCell id="Zx5_aKABX4eHuGwFj37n-29" style="edgeStyle=orthogonalEdgeStyle;rounded=0;orthogonalLoop=1;jettySize=auto;html=1;entryX=0.494;entryY=1.007;entryDx=0;entryDy=0;entryPerimeter=0;endArrow=blockThin;endFill=0;" edge="1" parent="1" source="Zx5_aKABX4eHuGwFj37n-1" target="Zx5_aKABX4eHuGwFj37n-12">
          <mxGeometry relative="1" as="geometry" />
        </mxCell>
      </root>
    </mxGraphModel>
  </diagram>
</mxfile>
